<svg width="146" height="41" viewBox="0 0 244 69" fill="none" xmlns="http://www.w3.org/2000/svg">
<path d="M17 3.5H41" stroke="#C084FC" stroke-width="3"/>
<circle cx="42.5" cy="3.5" r="3.5" fill="#C084FC"/>
<line x1="3.47155" y1="26.2105" x2="16.4716" y2="5.21047" stroke="#A855F7" stroke-width="3"/>
<path d="M16.747 46L4.74695 25" stroke="#9333EA" stroke-width="3"/>
<line x1="41.6584" y1="45.3292" x2="51.6584" y2="25.3292" stroke="#6B21A8" stroke-width="3"/>
<path d="M24.747 23C23.9185 23 23.247 23.6716 23.247 24.5C23.247 25.3284 23.9185 26 24.747 26L24.747 23ZM24.747 26L48.747 26L48.747 23L24.747 23L24.747 26Z" fill="#581C87"/>
<circle cx="4.94975" cy="24.9497" r="3.5" transform="rotate(-45 4.94975 24.9497)" fill="#9333EA"/>
<path d="M53.4246 22.4749C54.7915 23.8417 54.7915 26.0578 53.4246 27.4246C52.0578 28.7915 49.8417 28.7915 48.4749 27.4246C47.108 26.0578 47.108 23.8417 48.4749 22.4749C49.8417 21.108 52.0578 21.108 53.4246 22.4749Z" fill="#581C87"/>
<line x1="15.747" y1="44.5" x2="39.747" y2="44.5" stroke="#7E22CE" stroke-width="3"/>
<circle cx="16.5" cy="44.5" r="3.5" fill="#7E22CE"/>
<circle cx="41.5" cy="44.5" r="3.5" fill="#6B21A8"/>
<circle cx="16.5" cy="3.5" r="3.5" fill="#A855F7"/>
<path d="M59.0682 46V24.1818H62.3068V27.4773H62.5341C62.9318 26.3977 63.6515 25.5218 64.6932 24.8494C65.7348 24.1771 66.9091 23.8409 68.2159 23.8409C68.4621 23.8409 68.7699 23.8456 69.1392 23.8551C69.5085 23.8646 69.7879 23.8788 69.9773 23.8977V27.3068C69.8636 27.2784 69.6032 27.2358 69.196 27.179C68.7983 27.1127 68.3769 27.0795 67.9318 27.0795C66.8712 27.0795 65.9242 27.3021 65.0909 27.7472C64.267 28.1828 63.6136 28.7888 63.1307 29.5653C62.6572 30.3324 62.4205 31.2083 62.4205 32.1932V46H59.0682ZM80.3714 46.5114C78.9889 46.5114 77.7341 46.2509 76.6072 45.7301C75.4804 45.1998 74.5855 44.4375 73.9226 43.4432C73.2597 42.4394 72.9283 41.2273 72.9283 39.8068C72.9283 38.5568 73.1745 37.5436 73.6669 36.767C74.1593 35.9811 74.8175 35.3655 75.6413 34.9205C76.4652 34.4754 77.3743 34.1439 78.3686 33.9261C79.3724 33.6989 80.3809 33.5189 81.3942 33.3864C82.7199 33.2159 83.7947 33.0881 84.6186 33.0028C85.4519 32.9081 86.058 32.7519 86.4368 32.5341C86.825 32.3163 87.0192 31.9375 87.0192 31.3977V31.2841C87.0192 29.8826 86.6357 28.7936 85.8686 28.017C85.111 27.2405 83.9605 26.8523 82.4169 26.8523C80.8165 26.8523 79.5618 27.2027 78.6527 27.9034C77.7436 28.6042 77.1044 29.3523 76.7351 30.1477L73.5533 29.0114C74.1214 27.6856 74.879 26.6534 75.826 25.9148C76.7824 25.1667 77.8241 24.6458 78.951 24.3523C80.0874 24.0492 81.2048 23.8977 82.3033 23.8977C83.004 23.8977 83.8089 23.983 84.718 24.1534C85.6366 24.3144 86.522 24.6506 87.3743 25.1619C88.236 25.6733 88.951 26.4451 89.5192 27.4773C90.0874 28.5095 90.3714 29.892 90.3714 31.625V46H87.0192V43.0455H86.8487C86.6214 43.5189 86.2427 44.0256 85.7124 44.5653C85.1821 45.1051 84.4766 45.5644 83.5959 45.9432C82.7152 46.322 81.6404 46.5114 80.3714 46.5114ZM80.8828 43.5C82.2086 43.5 83.326 43.2396 84.2351 42.7188C85.1536 42.1979 85.8449 41.5256 86.3089 40.7017C86.7824 39.8778 87.0192 39.0114 87.0192 38.1023V35.0341C86.8771 35.2045 86.5646 35.3608 86.0817 35.5028C85.6082 35.6354 85.0589 35.7538 84.4339 35.858C83.8184 35.9527 83.2171 36.0379 82.63 36.1136C82.0523 36.1799 81.5836 36.2367 81.2237 36.2841C80.3525 36.3977 79.5381 36.5824 78.7805 36.8381C78.0324 37.0843 77.4264 37.4583 76.9624 37.9602C76.5078 38.4527 76.2805 39.125 76.2805 39.9773C76.2805 41.142 76.7114 42.0227 77.5732 42.6193C78.4444 43.2064 79.5476 43.5 80.8828 43.5ZM96.4901 54.1818V24.1818H99.7287V27.6477H100.126C100.373 27.2689 100.714 26.786 101.149 26.1989C101.594 25.6023 102.229 25.072 103.053 24.608C103.886 24.1345 105.013 23.8977 106.433 23.8977C108.27 23.8977 109.89 24.357 111.291 25.2756C112.693 26.1941 113.786 27.4962 114.572 29.1818C115.358 30.8674 115.751 32.8561 115.751 35.1477C115.751 37.4583 115.358 39.4612 114.572 41.1562C113.786 42.8419 112.697 44.1487 111.305 45.0767C109.913 45.9953 108.308 46.4545 106.49 46.4545C105.089 46.4545 103.966 46.2225 103.124 45.7585C102.281 45.285 101.632 44.75 101.178 44.1534C100.723 43.5473 100.373 43.0455 100.126 42.6477H99.8423V54.1818H96.4901ZM99.7855 35.0909C99.7855 36.7386 100.027 38.1922 100.51 39.4517C100.993 40.7017 101.698 41.6818 102.626 42.392C103.554 43.0928 104.691 43.4432 106.036 43.4432C107.437 43.4432 108.607 43.0739 109.544 42.3352C110.491 41.5871 111.201 40.5833 111.675 39.3239C112.158 38.0549 112.399 36.6439 112.399 35.0909C112.399 33.5568 112.162 32.1742 111.689 30.9432C111.225 29.7027 110.519 28.7225 109.572 28.0028C108.635 27.2737 107.456 26.9091 106.036 26.9091C104.672 26.9091 103.526 27.2547 102.598 27.946C101.67 28.6278 100.969 29.5843 100.496 30.8153C100.022 32.0369 99.7855 33.4621 99.7855 35.0909ZM124.217 32.875V46H120.865V16.9091H124.217V27.5909H124.501C125.013 26.464 125.78 25.5691 126.803 24.9062C127.835 24.2339 129.208 23.8977 130.922 23.8977C132.409 23.8977 133.711 24.196 134.828 24.7926C135.946 25.3797 136.812 26.2841 137.428 27.5057C138.053 28.7178 138.365 30.2614 138.365 32.1364V46H135.013V32.3636C135.013 30.6307 134.563 29.2907 133.663 28.3438C132.773 27.3873 131.537 26.9091 129.956 26.9091C128.857 26.9091 127.873 27.1411 127.001 27.6051C126.14 28.0691 125.458 28.7462 124.956 29.6364C124.464 30.5265 124.217 31.6061 124.217 32.875ZM144.498 46V24.1818H147.85V46H144.498ZM146.202 20.5455C145.549 20.5455 144.986 20.3229 144.512 19.8778C144.048 19.4328 143.816 18.8977 143.816 18.2727C143.816 17.6477 144.048 17.1127 144.512 16.6676C144.986 16.2225 145.549 16 146.202 16C146.856 16 147.415 16.2225 147.879 16.6676C148.352 17.1127 148.589 17.6477 148.589 18.2727C148.589 18.8977 148.352 19.4328 147.879 19.8778C147.415 20.3229 146.856 20.5455 146.202 20.5455ZM165.013 36.9091H168.876L172.115 41.1705L172.967 42.3068L177.797 48.7273H173.933L170.751 44.4659L169.956 43.3864L165.013 36.9091ZM178.99 31.4545C178.99 34.5227 178.436 37.1742 177.328 39.4091C176.22 41.6439 174.7 43.3674 172.768 44.5795C170.837 45.7917 168.63 46.3977 166.149 46.3977C163.668 46.3977 161.462 45.7917 159.53 44.5795C157.598 43.3674 156.078 41.6439 154.97 39.4091C153.862 37.1742 153.308 34.5227 153.308 31.4545C153.308 28.3864 153.862 25.7348 154.97 23.5C156.078 21.2652 157.598 19.5417 159.53 18.3295C161.462 17.1174 163.668 16.5114 166.149 16.5114C168.63 16.5114 170.837 17.1174 172.768 18.3295C174.7 19.5417 176.22 21.2652 177.328 23.5C178.436 25.7348 178.99 28.3864 178.99 31.4545ZM175.581 31.4545C175.581 28.9356 175.16 26.8097 174.317 25.0767C173.483 23.3438 172.352 22.0322 170.922 21.142C169.501 20.2519 167.911 19.8068 166.149 19.8068C164.388 19.8068 162.792 20.2519 161.362 21.142C159.942 22.0322 158.81 23.3438 157.967 25.0767C157.134 26.8097 156.717 28.9356 156.717 31.4545C156.717 33.9735 157.134 36.0994 157.967 37.8324C158.81 39.5653 159.942 40.8769 161.362 41.767C162.792 42.6572 164.388 43.1023 166.149 43.1023C167.911 43.1023 169.501 42.6572 170.922 41.767C172.352 40.8769 173.483 39.5653 174.317 37.8324C175.16 36.0994 175.581 33.9735 175.581 31.4545ZM187.811 16.9091V46H184.459V16.9091H187.811Z" fill="#6B21A8"/>
</svg>
